<?xml version="1.0" encoding="UTF-8"?>
<svg id="_레이어_2" data-name="레이어 2" xmlns="http://www.w3.org/2000/svg" viewBox="0 0 275.01 40.28">
  <g id="_레이어_1-2" data-name="레이어 1">
    <g>
      <path d="M60.83,2.44c-6.5,.17-11.86,5.96-13.74,13.5,5.3,1.43,8.81,4.47,9.09,10.47,.17,3.78-2.34,7.24-6.59,9.43,2.19,2.92,5.72,4.65,11.24,4.43,11.19-.45,14.53-6.38,14.53-16.82s-3.87-21-14.14-21c-.13,0-.26,0-.4,0"/>
      <path d="M18.63,26.58c-.21,5.84,8.76,11.68,20.02,11.68,4.27,0,8.02-.91,10.94-2.41-2.64-3.52-3.34-8.78-3.22-14.48,.04-1.87,.29-3.69,.72-5.42-2.85-.77-6.21-1.07-9.87-1.11-.14,0-.28,0-.42,0-12.66,0-17.98,6.59-18.17,11.74"/>
      <path d="M75.61,7.16c0,4.51,2.71,7.17,7.31,7.17,4.29,0,7.31-2.66,7.31-7.17s-1.98-7.16-7.31-7.16-7.31,2.66-7.31,7.16"/>
      <path d="M0,28.29c0,3.53,1.71,5.9,7.65,5.9s7.65-2.37,7.65-5.9-3.59-9.95-7.65-9.95S0,24.76,0,28.29"/>
      <path d="M79.09,28.06c0,4.2,3.87,6.42,18.67,6.42,10.31,0,18.56-3.4,18.67-7.6v-.1c-.04-5.05-12.63-8.15-22.87-8.15s-14.47,5.24-14.47,9.43"/>
      <path d="M193.62,32.63h-3.37l1.68-4.29,1.7,4.29Zm-8.83,5.5h3.35l1.15-2.93h5.36l1.19,2.93h3.43l-6.01-13.81h-2.52l-5.97,13.81Zm-11,0h9.73v-2.81h-6.69v-2.81h5.99v-2.81h-5.99v-2.58h6.34v-2.81h-9.38v13.81Zm-9.77-11.23h1.99c1.11,0,2.36,.21,2.36,1.6,0,1.5-1.44,1.54-2.55,1.54h-1.79v-3.14Zm-3.04,11.23h3.04v-5.52h1.5l2.89,5.52h3.65l-3.51-5.83c1.95-.35,2.98-1.85,2.98-3.78,0-3.22-2.38-4.19-5.21-4.19h-5.34v13.81Zm-13.89-6.9c0-2.57,1.7-4.45,4.29-4.45s4.29,1.87,4.29,4.45-1.7,4.45-4.29,4.45-4.29-1.87-4.29-4.45m-3.16,0c0,4.43,3.14,7.26,7.45,7.26s7.45-2.83,7.45-7.26-3.14-7.26-7.45-7.26-7.45,2.83-7.45,7.26m-12.35,6.9h3.04v-6.55l5.62,6.55h4.25l-6.67-7.39,6.14-6.42h-3.98l-5.36,5.73v-5.73h-3.04v13.81Z"/>
      <path d="M266.33,18.31h8.68v-2.81h-5.64V4.5h-3.04v13.81Zm-5.9,0h3.04V4.5h-3.04v13.81Zm-1.88-12.13c-1.17-1.5-3.12-2.03-4.66-2.03-4.31,0-7.45,2.83-7.45,7.26s3.14,7.26,7.45,7.26c1.89,0,3.84-.76,4.99-2.4l-2.54-1.89c-.62,.94-1.62,1.48-2.85,1.48-2.2,0-3.9-1.87-3.9-4.45s1.7-4.45,4-4.45c1.13,0,2.01,.41,2.61,1.13l2.34-1.91Zm-27.34,12.13h3.04V8.48h.04l6.03,9.83h3.98V4.5h-3.04V14.1h-.04l-5.87-9.6h-4.14v13.81Zm-2.82-13.81h-3.04V12.87c0,1.7-1.17,2.98-2.77,2.98s-2.79-1.29-2.79-2.98V4.5h-3.04V12.99c0,3.26,1.99,5.67,5.83,5.67s5.81-2.42,5.81-5.67V4.5Zm-25.4,6.9c0-2.57,1.7-4.45,4.29-4.45s4.29,1.87,4.29,4.45-1.7,4.45-4.29,4.45-4.29-1.87-4.29-4.45m-3.16,0c0,4.43,3.14,7.26,7.45,7.26s7.45-2.83,7.45-7.26-3.14-7.26-7.45-7.26-7.45,2.83-7.45,7.26m-.8-5.23c-1.17-1.5-3.12-2.03-4.66-2.03-4.31,0-7.45,2.83-7.45,7.26s3.14,7.26,7.45,7.26c1.89,0,3.84-.76,4.99-2.4l-2.53-1.89c-.62,.94-1.62,1.48-2.85,1.48-2.2,0-3.9-1.87-3.9-4.45s1.7-4.45,4-4.45c1.13,0,2.01,.41,2.61,1.13l2.34-1.91Zm-19.82-.58c-1.17-1.03-2.67-1.44-4.23-1.44-2.71,0-5.27,1.54-5.27,4.49,0,4.6,6.47,3.24,6.47,5.77,0,.97-1.11,1.44-2.11,1.44s-2.03-.49-2.65-1.31l-2.17,2.38c1.31,1.21,2.87,1.74,4.64,1.74,2.85,0,5.32-1.46,5.32-4.54,0-4.84-6.36-3.22-6.36-5.73,0-1.03,1.19-1.42,2.05-1.42,.74,0,1.72,.29,2.2,.92l2.09-2.28Zm-17.64,12.72h3.04V7.19h3.94v-2.69h-10.92v2.69h3.94v11.12Zm-12.54-11.23h1.99c1.11,0,2.36,.21,2.36,1.6,0,1.5-1.44,1.54-2.55,1.54h-1.79v-3.14Zm-3.04,11.23h3.04v-5.52h1.5l2.89,5.52h3.65l-3.51-5.83c1.95-.35,2.98-1.85,2.98-3.78,0-3.22-2.38-4.19-5.21-4.19h-5.34v13.81Zm-7.1-5.5h-3.37l1.68-4.29,1.7,4.29Zm-8.83,5.5h3.35l1.15-2.93h5.36l1.19,2.93h3.43l-6.01-13.81h-2.52l-5.97,13.81Z"/>
    </g>
  </g>
</svg>