<?xml version="1.0" encoding="UTF-8"?>
<svg id="svg-audio" data-name="레이어 2" xmlns="http://www.w3.org/2000/svg" viewBox="0 0 30.33 21.3">
  <g id="svg-audio-g" data-name="레이어 1">
    <path d="M25.27,9.13C24.76,4.01,20.42,0,15.17,0S5.58,4.01,5.06,9.13c-2.87,.51-5.06,3.02-5.06,6.03,0,3.38,2.75,6.13,6.13,6.13s6.13-2.75,6.13-6.13c0-2.97-2.13-5.46-4.94-6.01,.5-3.89,3.82-6.91,7.84-6.91s7.35,3.02,7.84,6.91c-2.81,.56-4.94,3.04-4.94,6.01,0,3.38,2.75,6.13,6.13,6.13s6.13-2.75,6.13-6.13c0-3.02-2.19-5.52-5.06-6.03Zm-15.24,6.03c0,2.15-1.75,3.89-3.89,3.89s-3.89-1.75-3.89-3.89,1.75-3.89,3.89-3.89,3.89,1.75,3.89,3.89Zm14.18,3.89c-2.15,0-3.89-1.75-3.89-3.89s1.75-3.89,3.89-3.89,3.89,1.75,3.89,3.89-1.75,3.89-3.89,3.89Z"/>
  </g>
</svg>