<?xml version="1.0" encoding="UTF-8"?><svg id="svg-help" xmlns="http://www.w3.org/2000/svg" viewBox="0 0 26.17 26.17"><g id="svg-help-g"><g><path d="M13.09,20.44c-.84,0-1.53-.69-1.53-1.53s.69-1.53,1.53-1.53,1.53,.69,1.53,1.53-.69,1.53-1.53,1.53Z"/><path d="M13.09,0C5.87,0,0,5.87,0,13.09s5.87,13.09,13.09,13.09,13.09-5.87,13.09-13.09S20.3,0,13.09,0Zm0,23.43c-5.7,0-10.34-4.64-10.34-10.34S7.38,2.75,13.09,2.75s10.34,4.64,10.34,10.34-4.64,10.34-10.34,10.34Z"/><path d="M8.95,10.45c0-.66,.1-1.26,.3-1.81,.2-.54,.49-1.01,.87-1.39,.38-.39,.84-.68,1.37-.89,.54-.21,1.13-.32,1.8-.32,.55,0,1.07,.08,1.54,.24,.48,.16,.89,.4,1.25,.7,.35,.31,.63,.69,.84,1.15,.2,.46,.31,.98,.31,1.55,0,.42-.05,.79-.14,1.09-.09,.31-.21,.57-.36,.79-.15,.22-.32,.42-.51,.6-.19,.17-.39,.35-.58,.51-.23,.19-.44,.38-.63,.56-.19,.18-.36,.38-.51,.61-.14,.22-.26,.48-.33,.79-.08,.3-.12,.67-.12,1.1h-1.95c0-.53,.03-.98,.08-1.35,.05-.37,.14-.69,.26-.97,.12-.28,.27-.52,.44-.73,.17-.21,.38-.42,.62-.62,.19-.17,.38-.33,.55-.47,.17-.14,.33-.3,.47-.48,.14-.17,.25-.37,.33-.59,.08-.22,.12-.48,.12-.78,0-.36-.06-.67-.19-.93-.13-.26-.28-.47-.46-.62-.18-.16-.37-.27-.58-.34-.2-.07-.39-.11-.54-.11-.75,0-1.3,.24-1.65,.73-.36,.49-.53,1.14-.53,1.96h-2.06Z"/></g></g></svg>