<?xml version="1.0" encoding="UTF-8"?>
<svg id="_레이어_2" data-name="레이어 2" xmlns="http://www.w3.org/2000/svg" viewBox="0 0 273.95 50.96">
  <g id="_레이어_1-2" data-name="레이어 1">
    <g>
      <g>
        <path d="M14.98,8.19c4.09-3.53,9.4-5.68,15.22-5.73,4.84-.04,9.36,1.38,13.13,3.85C38.74,2.38,32.77,0,26.26,0,11.76,0,0,11.75,0,26.25c0,3.93,.87,7.66,2.42,11.02,3.54,7.68,11.3,13.02,20.32,13.02s16.75-5.57,19.93-13.46c.58-1.46,.9-3.05,.9-4.71,0-5.15-4.17-9.32-9.32-9.32-3.31,0-6.22,1.73-7.87,4.33-1.65,2.6-4.56,4.33-7.87,4.33s-6.46-1.84-8.14-4.77c-.63-1.1-.99-2.28-1.15-3.67-.07-.57-.1-1.18-.11-1.83-.05-5.18,2.24-9.84,5.88-12.98"/>
        <path d="M30.48,3.81c11.19,0,22.02,8.73,22.02,22.4,0,11.38-7.23,21.11-17.36,24.75,7.87-3.9,13.28-12.02,13.28-21.4,0-11.95-9.69-21.64-21.65-21.64-5.17,0-9.9,1.93-13.49,5.11-.41,.36-.8,.76-1.16,1.17,.97-1.99,2.35-3.75,4.03-5.16,3.86-3.26,8.86-5.22,14.32-5.22"/>
      </g>
      <g>
        <path d="M78.03,9.08v12.35h-1.98V11.49l-3.22,9.94h-1.91l-3.22-9.94v9.94h-1.98V9.08h3.04l3.12,9.62,3.12-9.62h3.05Z"/>
        <path d="M144.95,11.62c0-.83,.24-1.46,.7-1.89,.47-.43,1.18-.65,2.14-.65h.97v1.61h-.58c-.38,0-.67,.08-.88,.24-.21,.16-.31,.45-.31,.88v.74h1.77v1.63h-1.77v7.24h-2.04v-7.24h-1.52v-1.63h1.52v-.94Z"/>
        <path d="M161.14,19.91c1.29,0,2.46-.41,3.52-1.24l.85,1.51c-1.1,.98-2.56,1.47-4.38,1.47s-3.29-.61-4.53-1.83c-1.23-1.22-1.85-2.74-1.85-4.54s.62-3.34,1.85-4.56c1.23-1.22,2.75-1.83,4.53-1.83s3.23,.49,4.31,1.49l-.83,1.51c-1.05-.84-2.21-1.26-3.47-1.26-1.18,0-2.19,.44-3.03,1.31-.85,.91-1.28,2.03-1.28,3.35s.42,2.43,1.28,3.33c.83,.87,1.84,1.31,3.03,1.31Z"/>
        <path d="M173.02,17.02v-4.46h2.02v8.87h-1.93v-1.17c-.25,.44-.58,.77-.99,.99-.49,.26-.99,.39-1.51,.39-1.04,0-1.87-.35-2.51-1.06-.63-.71-.95-1.67-.95-2.87v-5.15h2v4.66c0,.93,.15,1.63,.47,2.08,.31,.45,.79,.68,1.43,.68,.32,0,.64-.11,.96-.33,.32-.22,.56-.51,.72-.88,.19-.44,.28-1.02,.28-1.75Z"/>
        <path d="M177.31,21.43V9.08h2v12.35h-2Z"/>
        <path d="M184.29,9.7v2.85h1.93v1.63h-1.93v4.52c0,.43,.1,.72,.31,.88,.21,.16,.5,.24,.87,.24h.75v1.61h-1.22c-.95,0-1.65-.21-2.09-.64-.44-.43-.66-1.06-.66-1.9v-4.71h-1.52v-1.63h1.52v-2.85h2.04Z"/>
        <path d="M193.76,17.02v-4.46h2.02v8.87h-1.93v-1.17c-.25,.44-.58,.77-.99,.99-.48,.26-.99,.39-1.51,.39-1.04,0-1.87-.35-2.51-1.06-.63-.71-.95-1.67-.95-2.87v-5.15h2v4.66c0,.93,.15,1.63,.47,2.08,.31,.45,.79,.68,1.43,.68,.32,0,.64-.11,.96-.33,.32-.22,.56-.51,.73-.88,.19-.44,.28-1.02,.28-1.75Z"/>
        <path d="M198.11,21.43V12.56h1.9v1.33c.29-.43,.66-.77,1.08-1.01,.51-.31,1.11-.46,1.79-.46h.15v1.81h-.21c-.84,0-1.51,.26-2,.76-.47,.5-.69,1.27-.69,2.32v4.13h-2.01Z"/>
        <path d="M205.75,17.89c.12,.54,.37,.99,.76,1.33,.57,.52,1.32,.78,2.25,.78,.98,0,1.9-.36,2.75-1.08l.6,1.49c-.96,.83-2.09,1.24-3.4,1.24-1.5,0-2.72-.42-3.66-1.28-.94-.85-1.41-1.96-1.41-3.35s.42-2.48,1.25-3.36c.83-.88,1.92-1.32,3.27-1.32s2.41,.44,3.25,1.31c.84,.87,1.27,1.96,1.27,3.24,0,.35-.03,.69-.09,.99h-6.84Zm-.04-1.59h4.93c-.02-.58-.26-1.11-.73-1.59-.46-.48-1.05-.72-1.75-.72s-1.34,.26-1.81,.78c-.35,.39-.56,.9-.64,1.53Z"/>
        <path d="M215.21,22.21h-.09c-.35,0-.66-.12-.92-.37-.26-.25-.39-.55-.39-.91s.13-.67,.39-.92c.26-.25,.56-.37,.92-.37s.68,.12,.92,.35c.3,.28,.45,.68,.45,1.19,0,.86-.22,1.58-.64,2.14-.41,.53-.89,.9-1.42,1.11l-.53-.58c.49-.31,.84-.66,1.08-1.06,.11-.18,.18-.37,.23-.58Z"/>
        <path d="M222.1,18.93l1.36-1.38c.37,.78,.83,1.35,1.38,1.72,.6,.4,1.21,.6,1.83,.6s1.2-.17,1.66-.51c.46-.33,.69-.77,.69-1.31,0-.48-.23-.88-.7-1.18-.47-.3-.97-.56-1.51-.77-.55-.2-1.11-.42-1.7-.66-.95-.34-1.62-.79-2.03-1.35-.41-.55-.61-1.14-.61-1.75,0-.96,.41-1.77,1.22-2.45,.81-.68,1.81-1.02,2.99-1.02,1.24,0,2.25,.32,3.03,.95,.4,.31,.68,.65,.83,1.03l-1.24,1.31c-.11-.21-.3-.45-.58-.73-.6-.54-1.32-.81-2.14-.81-.52,0-.98,.14-1.38,.43-.39,.29-.59,.67-.59,1.16,0,.73,.8,1.38,2.41,1.95,.29,.09,.6,.2,.92,.32,1.08,.41,1.88,.9,2.42,1.46,.54,.56,.8,1.26,.8,2.08,0,.98-.42,1.82-1.26,2.53-.82,.72-1.89,1.08-3.21,1.08-1.21,0-2.2-.27-2.99-.81-.77-.53-1.31-1.16-1.61-1.9Z"/>
        <path d="M237.51,21.64c-1.09,0-2-.42-2.73-1.26v4.48h-2V12.56h1.93v1.13c.77-.9,1.7-1.35,2.8-1.35,1.29,0,2.34,.46,3.15,1.39,.81,.93,1.21,2.02,1.21,3.27s-.41,2.34-1.21,3.26c-.81,.92-1.86,1.38-3.15,1.38Zm-2.71-4.07c.07,.66,.32,1.22,.74,1.66,.47,.5,1.06,.75,1.77,.75,.77,0,1.38-.28,1.84-.84,.45-.56,.68-1.27,.68-2.13s-.23-1.56-.68-2.14c-.46-.57-1.07-.86-1.84-.86-.71,0-1.3,.25-1.77,.74-.43,.45-.67,1.01-.74,1.68-.04,.37-.04,.74,0,1.14Z"/>
        <path d="M247.64,21.64c-1.3,0-2.41-.44-3.32-1.34-.92-.89-1.37-1.99-1.37-3.3s.45-2.42,1.37-3.31c.92-.9,2.02-1.35,3.32-1.35s2.42,.45,3.33,1.35c.91,.9,1.37,2,1.37,3.31s-.45,2.41-1.37,3.3c-.91,.89-2.02,1.34-3.33,1.34Zm0-1.66c.73,0,1.36-.28,1.88-.84,.53-.56,.79-1.27,.79-2.13s-.26-1.56-.79-2.14c-.52-.57-1.15-.86-1.88-.86s-1.34,.29-1.87,.86c-.53,.58-.79,1.29-.79,2.14s.26,1.57,.79,2.13c.53,.56,1.15,.84,1.87,.84Z"/>
        <path d="M254.06,21.43V12.56h1.9v1.33c.29-.43,.65-.77,1.08-1.01,.51-.31,1.1-.46,1.79-.46h.14v1.81h-.21c-.84,0-1.5,.26-2,.76-.46,.5-.69,1.27-.69,2.32v4.13h-2Z"/>
        <path d="M263.59,9.7v2.85h1.94v1.63h-1.94v4.52c0,.43,.11,.72,.32,.88,.2,.16,.5,.24,.88,.24h.74v1.61h-1.22c-.96,0-1.65-.21-2.09-.64-.43-.43-.65-1.06-.65-1.9v-4.71h-1.52v-1.63h1.52v-2.85h2.03Z"/>
        <path d="M266.51,19.78l1.26-1.29c.36,.48,.75,.86,1.17,1.13,.41,.25,.85,.37,1.33,.37,.45,0,.83-.09,1.14-.28,.32-.18,.47-.43,.47-.73s-.15-.54-.45-.72c-.3-.17-.66-.33-1.07-.49-.49-.15-.98-.32-1.49-.51-.69-.25-1.19-.57-1.51-.96-.32-.39-.48-.83-.48-1.33,0-.73,.34-1.35,1.03-1.87,.68-.51,1.49-.77,2.43-.77,.99,0,1.8,.24,2.43,.71,.32,.25,.57,.56,.76,.92l-1.24,1.2c-.16-.28-.36-.51-.59-.69-.39-.35-.88-.51-1.47-.51-.34,0-.64,.09-.89,.26-.26,.17-.38,.38-.38,.61,0,.26,.14,.48,.43,.66,.28,.17,.7,.35,1.26,.51,.2,.06,.43,.13,.69,.21,.86,.29,1.52,.65,1.96,1.1,.44,.45,.66,.99,.66,1.61,0,.73-.35,1.37-1.06,1.9-.71,.54-1.61,.81-2.71,.81-.92,0-1.73-.21-2.44-.64-.47-.28-.88-.69-1.22-1.22Z"/>
        <path d="M69.45,37.41h2.09c0-.58-.22-1.01-.67-1.3-.45-.29-1.1-.44-1.95-.44h-.05c-.8,0-1.65,.19-2.55,.57l-.51-1.58c.93-.4,1.96-.61,3.08-.62h.03c1.49,0,2.63,.29,3.43,.86,.8,.57,1.19,1.48,1.19,2.74v5.49h-1.91v-.97c-.38,.38-.84,.67-1.39,.88-.55,.21-1.11,.31-1.67,.31-1.07,0-1.92-.28-2.58-.84-.66-.56-.98-1.25-.98-2.07,0-.91,.41-1.66,1.22-2.25,.76-.52,1.83-.78,3.22-.78Zm-.55,4.34c.52,0,1.03-.13,1.54-.38,.51-.25,.87-.55,1.1-.88v-1.51h-1.79c-1.02,0-1.72,.13-2.13,.39-.39,.3-.58,.65-.58,1.06,0,.38,.16,.69,.5,.94,.33,.25,.78,.37,1.36,.37Z"/>
        <path d="M82.65,10.06c0,.34-.13,.64-.38,.89-.25,.25-.56,.38-.91,.38s-.66-.13-.91-.38c-.25-.25-.38-.55-.38-.89s.13-.66,.38-.91c.25-.25,.56-.38,.91-.38s.66,.13,.91,.38c.25,.25,.38,.56,.38,.91Zm-2.28,11.37V12.56h2.02v8.87h-2.02Z"/>
        <path d="M86.72,16.97v4.46h-2V12.56h1.93v1.19c.23-.41,.57-.75,1.02-1.01,.45-.26,.93-.39,1.45-.39,1.05,0,1.89,.36,2.53,1.07,.63,.72,.95,1.67,.95,2.86v5.15h-2.02v-4.64c0-.94-.15-1.64-.46-2.1-.31-.45-.78-.68-1.42-.68-.33,0-.65,.11-.96,.33-.32,.22-.55,.52-.72,.9-.2,.44-.3,1.02-.3,1.74Z"/>
        <path d="M97.15,10.06c0,.34-.13,.64-.38,.89-.26,.25-.56,.38-.91,.38s-.66-.13-.91-.38c-.26-.25-.38-.55-.38-.89s.13-.66,.38-.91c.25-.25,.56-.38,.91-.38s.66,.13,.91,.38c.25,.25,.38,.56,.38,.91Zm-2.28,11.37V12.56h2.02v8.87h-2.02Z"/>
        <path d="M98.53,19.78l1.26-1.29c.35,.48,.74,.86,1.17,1.13,.41,.25,.86,.37,1.33,.37s.83-.09,1.14-.28c.31-.18,.47-.43,.47-.73s-.15-.54-.45-.72c-.3-.17-.66-.33-1.07-.49-.48-.15-.99-.32-1.49-.51-.69-.25-1.19-.57-1.51-.96-.32-.39-.48-.83-.48-1.33,0-.73,.34-1.35,1.02-1.87,.69-.51,1.49-.77,2.43-.77,.99,0,1.8,.24,2.43,.71,.32,.25,.57,.56,.76,.92l-1.24,1.2c-.16-.28-.36-.51-.58-.69-.39-.35-.88-.51-1.47-.51-.34,0-.64,.09-.9,.26-.26,.17-.38,.38-.38,.61,0,.26,.14,.48,.43,.66,.28,.17,.7,.35,1.26,.51,.2,.06,.43,.13,.69,.21,.86,.29,1.51,.65,1.96,1.1,.44,.45,.66,.99,.66,1.61,0,.73-.35,1.37-1.06,1.9-.71,.54-1.61,.81-2.71,.81-.92,0-1.74-.21-2.45-.64-.47-.28-.88-.69-1.22-1.22Z"/>
        <path d="M110.21,9.7v2.85h1.93v1.63h-1.93v4.52c0,.43,.1,.72,.31,.88,.2,.16,.5,.24,.87,.24h.75v1.61h-1.23c-.95,0-1.65-.21-2.08-.64-.44-.43-.66-1.06-.66-1.9v-4.71h-1.52v-1.63h1.52v-2.85h2.04Z"/>
        <path d="M113.82,21.43V12.56h1.89v1.33c.3-.43,.66-.77,1.08-1.01,.5-.31,1.1-.46,1.79-.46h.14v1.81h-.21c-.84,0-1.5,.26-2,.76-.46,.5-.69,1.27-.69,2.32v4.13h-2Z"/>
        <path d="M122.97,21.09l-3.49-8.54h2.09l2.41,6.06,2.39-6.06h2.07l-4.94,12.31h-2.05l1.52-3.77Z"/>
        <path d="M138.08,21.64c-1.29,0-2.4-.44-3.32-1.34-.92-.89-1.37-1.99-1.37-3.3s.45-2.42,1.37-3.31c.92-.9,2.03-1.35,3.32-1.35s2.42,.45,3.33,1.35c.91,.9,1.36,2,1.36,3.31s-.46,2.41-1.36,3.3c-.91,.89-2.02,1.34-3.33,1.34Zm0-1.66c.73,0,1.36-.28,1.89-.84,.52-.56,.79-1.27,.79-2.13s-.26-1.56-.79-2.14c-.53-.57-1.15-.86-1.89-.86s-1.34,.29-1.87,.86c-.53,.58-.79,1.29-.79,2.14s.26,1.57,.79,2.13c.53,.56,1.15,.84,1.87,.84Z"/>
        <path d="M77.82,38.67v4.47h-2v-8.87h1.93v1.18c.24-.41,.58-.75,1.03-1.01,.45-.26,.93-.39,1.45-.39,1.05,0,1.89,.36,2.52,1.07,.63,.71,.95,1.67,.95,2.86v5.15h-2.02v-4.64c0-.94-.15-1.65-.46-2.1-.31-.46-.78-.68-1.42-.68-.33,0-.65,.11-.96,.33-.31,.22-.55,.51-.72,.89-.2,.44-.3,1.01-.3,1.73Z"/>
        <path d="M89.77,34.05c1.05,0,1.96,.42,2.71,1.27v-4.53h2.02v12.35h-1.95v-1.12c-.74,.89-1.67,1.33-2.78,1.33-1.3,0-2.35-.46-3.15-1.38-.8-.92-1.2-2.01-1.2-3.26s.4-2.34,1.2-3.27c.81-.93,1.86-1.39,3.15-1.39Zm2.69,5.23c.04-.39,.04-.77,0-1.14-.07-.67-.32-1.23-.74-1.68-.47-.49-1.06-.74-1.75-.74-.78,0-1.39,.29-1.84,.86-.45,.57-.68,1.28-.68,2.13s.23,1.57,.68,2.13c.45,.56,1.06,.84,1.84,.84,.69,0,1.28-.25,1.75-.74,.43-.45,.67-1.01,.74-1.66Z"/>
        <path d="M106.72,32.52v10.61h-2.07v-10.61h-3.77v-1.73h9.62v1.73h-3.77Z"/>
        <path d="M114.61,43.35c-1.3,0-2.4-.45-3.32-1.34-.91-.89-1.37-1.99-1.37-3.3s.46-2.41,1.37-3.31c.92-.9,2.02-1.35,3.32-1.35s2.42,.45,3.33,1.35c.91,.9,1.36,2,1.36,3.31s-.46,2.41-1.36,3.3c-.91,.89-2.02,1.34-3.33,1.34Zm0-1.67c.74,0,1.36-.28,1.89-.84,.53-.56,.79-1.27,.79-2.13s-.26-1.56-.79-2.13c-.53-.57-1.15-.86-1.89-.86s-1.34,.29-1.87,.86c-.53,.57-.79,1.28-.79,2.13s.26,1.57,.79,2.13c.52,.56,1.15,.84,1.87,.84Z"/>
        <path d="M126.91,38.72v-4.46h2.02v8.87h-1.93v-1.17c-.25,.44-.58,.77-.99,.99-.49,.26-.99,.39-1.51,.39-1.04,0-1.87-.36-2.51-1.06-.63-.71-.95-1.66-.95-2.87v-5.15h2v4.66c0,.93,.16,1.63,.47,2.08,.31,.45,.79,.68,1.43,.68,.31,0,.63-.11,.95-.33,.32-.22,.56-.51,.73-.88,.19-.44,.29-1.02,.29-1.76Z"/>
        <path d="M131.26,43.14v-8.87h1.89v1.33c.29-.44,.66-.77,1.08-1.01,.51-.31,1.11-.46,1.79-.46h.14v1.81h-.21c-.84,0-1.51,.25-2,.76-.46,.49-.69,1.27-.69,2.32v4.13h-2Z"/>
        <path d="M139.92,31.76c0,.35-.13,.64-.38,.9-.25,.25-.56,.38-.91,.38s-.66-.13-.91-.38c-.25-.25-.38-.55-.38-.9s.13-.66,.38-.91c.26-.26,.56-.38,.91-.38s.66,.13,.91,.38c.26,.25,.38,.56,.38,.91Zm-2.28,11.37v-8.87h2.02v8.87h-2.02Z"/>
        <path d="M141.3,41.49l1.26-1.29c.36,.48,.75,.86,1.17,1.13,.41,.25,.86,.37,1.33,.37,.44,0,.83-.09,1.14-.27,.31-.18,.47-.43,.47-.74s-.15-.55-.45-.72c-.3-.17-.66-.33-1.07-.49-.48-.15-.98-.33-1.49-.52-.68-.25-1.19-.57-1.51-.96-.32-.39-.48-.83-.48-1.33,0-.73,.34-1.36,1.03-1.87,.69-.51,1.49-.77,2.43-.77,.99,0,1.8,.23,2.42,.71,.32,.25,.58,.55,.77,.92l-1.24,1.21c-.17-.28-.36-.52-.58-.69-.39-.34-.88-.52-1.47-.52-.35,0-.64,.09-.9,.26-.25,.17-.38,.37-.38,.61,0,.26,.14,.48,.42,.66,.28,.18,.7,.35,1.26,.51,.2,.06,.43,.13,.69,.22,.86,.28,1.51,.65,1.95,1.1,.44,.45,.67,.99,.67,1.61,0,.73-.36,1.37-1.06,1.9-.71,.54-1.61,.81-2.71,.81-.92,0-1.74-.21-2.45-.64-.47-.28-.88-.69-1.22-1.22Z"/>
        <path d="M159.75,34.05c1.04,0,1.85,.36,2.43,1.07,.58,.71,.87,1.67,.87,2.86v5.15h-1.98v-4.64c0-.94-.13-1.65-.38-2.1-.26-.46-.67-.68-1.25-.68-.35,0-.64,.1-.9,.29-.25,.19-.46,.48-.61,.86-.17,.39-.25,.93-.25,1.63v4.64h-1.98v-4.64c0-.94-.13-1.65-.39-2.1-.26-.46-.67-.68-1.24-.68-.34,0-.64,.1-.88,.29-.24,.19-.44,.48-.61,.86-.18,.44-.26,1.02-.26,1.74v4.53h-1.99v-8.87h1.88v1.18c.49-.93,1.27-1.4,2.3-1.4,1.11,0,1.93,.54,2.45,1.61,.3-.53,.67-.93,1.11-1.21,.43-.27,.99-.41,1.69-.41Z"/>
      </g>
    </g>
  </g>
</svg>