<?xml version="1.0" encoding="UTF-8"?>
<svg id="_레이어_2" data-name="레이어 2" xmlns="http://www.w3.org/2000/svg" viewBox="0 0 165.76 76.08">
  <g id="_레이어_1-2" data-name="레이어 1">
    <g>
      <path d="M49.72,35.77c-.8,0-1.44,.65-1.44,1.44,0,1.69-.99,3.26-2.52,3.98l-8.33,3.94V11.44c0-.8-.65-1.44-1.44-1.44s-1.44,.65-1.44,1.44V46.5l-8.43,3.99c-.72,.34-1.03,1.2-.69,1.92,.25,.52,.77,.83,1.31,.83,.21,0,.42-.04,.62-.14l7.2-3.41v4.65c0,1.52-.77,2.91-2.05,3.72-1.28,.81-2.87,.91-4.24,.26l-.56-.27c-.72-.34-1.58-.03-1.92,.69-.34,.72-.03,1.58,.69,1.92l.56,.27c1,.47,2.06,.71,3.12,.71,1.36,0,2.7-.38,3.89-1.14,2.12-1.34,3.39-3.65,3.39-6.16v-6.02l9.56-4.53c2.53-1.2,4.17-3.79,4.17-6.59,0-.8-.65-1.44-1.44-1.44Z"/>
      <path d="M35.98,8.6c2.37,0,4.3-1.93,4.3-4.3s-1.93-4.3-4.3-4.3-4.3,1.93-4.3,4.3,1.93,4.3,4.3,4.3Zm0-5.72c.78,0,1.42,.63,1.42,1.41s-.63,1.41-1.42,1.41-1.41-.63-1.41-1.41,.63-1.41,1.41-1.41Z"/>
      <path d="M8.6,20.42c0-2.37-1.93-4.3-4.3-4.3S0,18.05,0,20.42s1.93,4.3,4.3,4.3,4.3-1.93,4.3-4.3Zm-5.72,0c0-.78,.63-1.41,1.41-1.41s1.42,.63,1.42,1.41-.63,1.41-1.42,1.41-1.41-.63-1.41-1.41Z"/>
      <path d="M27.45,69.47l-3.69-1.15c-.76-.24-1.57,.19-1.81,.95s.19,1.57,.95,1.81l2.44,.76-.53,2.5c-.17,.78,.33,1.55,1.11,1.71,.1,.02,.2,.03,.3,.03,.67,0,1.27-.47,1.41-1.14l.8-3.78c.15-.73-.27-1.46-.98-1.68Z"/>
      <path d="M22.07,72.12c-1.37,1.01-3.08,1.15-4.6,.39-1.51-.76-2.42-2.23-2.42-3.93v-13.31l6.24,2.95c.2,.09,.41,.14,.62,.14,.54,0,1.06-.31,1.31-.83,.34-.72,.03-1.58-.69-1.92l-7.48-3.54v-18.04c0-2.05,1.39-3.81,3.39-4.28l13.22-3.13c.78-.18,1.26-.96,1.07-1.74-.18-.78-.96-1.26-1.74-1.07l-13.22,3.13c-3.3,.78-5.61,3.7-5.61,7.09v16.67l-3.9-1.85c-1.53-.72-2.52-2.29-2.52-3.98V27.56c0-.8-.65-1.44-1.44-1.44s-1.44,.65-1.44,1.44v17.33c0,2.8,1.64,5.39,4.17,6.59l5.14,2.43v14.67c0,2.77,1.53,5.26,4,6.51,1.05,.53,2.17,.79,3.29,.79,1.52,0,3.04-.48,4.32-1.43,.64-.47,.78-1.38,.3-2.02-.47-.64-1.38-.78-2.02-.31Z"/>
      <path d="M39.63,23.26c.18,.78,.96,1.26,1.74,1.07l1.5-.35c1.32-.31,2.68,0,3.74,.83,1.06,.84,1.67,2.1,1.67,3.45,0,.8,.65,1.44,1.44,1.44s1.44-.65,1.44-1.44c0-2.24-1.01-4.33-2.77-5.72-1.76-1.39-4.02-1.89-6.2-1.38l-1.5,.35c-.78,.18-1.26,.96-1.07,1.74Z"/>
      <path d="M50.69,31.23c-.55-.5-1.39-.5-1.95,0l-2.86,2.61c-.59,.54-.63,1.45-.09,2.04,.54,.59,1.45,.63,2.04,.09l1.89-1.72,1.89,1.72c.28,.25,.62,.38,.97,.38,.39,0,.78-.16,1.07-.47,.54-.59,.49-1.5-.09-2.04l-2.86-2.61Z"/>
      <polygon points="64.77 33.25 64.77 38.45 77.19 38.45 77.19 36.41 67.34 36.41 67.34 33.25 64.77 33.25"/>
      <path d="M72.16,28.62c3.19-.27,5.24-1.64,5.24-3.64,0-2.28-2.59-3.7-6.5-3.7s-6.48,1.42-6.48,3.7c0,2.01,2.02,3.35,5.18,3.64v1.44h-6.79v2.04h16.2v-2.04h-6.83v-1.44Zm-5.1-3.64c0-1.09,1.44-1.67,3.84-1.67s3.85,.58,3.85,1.67-1.44,1.65-3.85,1.65-3.84-.55-3.84-1.65Z"/>
      <polygon points="94.4 29.71 96.97 29.71 96.97 27.59 94.4 27.59 94.4 20.81 91.83 20.81 91.83 38.8 94.4 38.8 94.4 29.71"/>
      <path d="M83.59,32.53v-3.25h5.68v-6.93h-8.23v2.04h5.7v2.86h-5.68v7.4h1.52c3.11,0,5.59-.12,8.27-.6l-.23-2.08c-2.34,.41-4.46,.55-7.03,.56Z"/>
      <path d="M102.98,31.07c2.74,0,4.87-1.93,4.87-4.54s-2.12-4.56-4.87-4.56-4.89,1.91-4.89,4.56,2.14,4.54,4.89,4.54Zm0-6.87c1.34,0,2.36,.86,2.36,2.34s-1.01,2.32-2.36,2.32-2.37-.88-2.37-2.32,1.05-2.34,2.37-2.34Z"/>
      <polygon points="103.37 32.45 100.8 32.45 100.8 38.45 113.18 38.45 113.18 36.41 103.37 36.41 103.37 32.45"/>
      <rect x="110.15" y="20.85" width="2.59" height="12.87"/>
      <rect x="127.65" y="20.83" width="2.57" height="17.97"/>
      <path d="M124.86,22.45h-8.62v12.05h8.62v-12.05Zm-2.53,10.03h-3.56v-8h3.56v8Z"/>
      <path d="M136.52,32.4v-7.88h6.09v-2.08h-8.66v12.11h1.58c3.82,0,6.09-.08,8.53-.55l-.23-2.12c-2.16,.41-4.17,.51-7.3,.53Z"/>
      <rect x="145.17" y="20.83" width="2.57" height="17.99"/>
      <path d="M155.31,34.89c2.49,0,4.32-2.1,4.59-5.53h2.98v9.44h2.57V20.81h-2.57v6.46h-3c-.35-3.23-2.16-5.2-4.57-5.2-2.67,0-4.63,2.45-4.63,6.39s1.97,6.42,4.63,6.42Zm0-10.49c1.32,0,2.2,1.42,2.2,4.07s-.88,4.09-2.2,4.09-2.18-1.42-2.18-4.09,.88-4.07,2.18-4.07Z"/>
      <rect x="76.08" y="44.17" width="2.43" height="17.93"/>
      <path d="M72.51,48.15h-2.06c-.66-1.73-1.81-2.69-3.27-2.69-2.39,0-3.89,2.45-3.89,6.5s1.5,6.52,3.89,6.52c1.48,0,2.63-.99,3.29-2.73h2.04v5.55h2.39v-16.82h-2.39v3.66Zm-5.33,7.92c-1.01,0-1.6-1.36-1.6-4.11s.58-4.09,1.6-4.09,1.58,1.34,1.58,4.09-.58,4.11-1.58,4.11Zm5.33-2.39h-1.56c.06-.53,.1-1.11,.1-1.71s-.04-1.21-.12-1.75h1.58v3.47Z"/>
      <polygon points="92.02 53.25 98.81 53.25 98.81 54.39 93.87 54.39 93.87 56.3 103.72 56.3 103.72 57.28 93.89 57.28 93.89 61.99 106.71 61.99 106.71 60.06 96.44 60.06 96.44 59.05 106.25 59.05 106.25 54.39 101.38 54.39 101.38 53.25 108.21 53.25 108.21 51.22 92.02 51.22 92.02 53.25"/>
      <path d="M93.65,50.48c3.1-.33,5.33-1.5,6.46-3.13,1.13,1.64,3.35,2.8,6.44,3.13l.86-1.93c-4.03-.39-5.98-2.2-5.98-3.93v-.33h-2.65v.33c0,1.73-1.95,3.54-5.98,3.93l.84,1.93Z"/>
      <path d="M132.09,52.35c-1.36,.16-2.8,.27-4.24,.35v-.72c1.91-.23,3.08-1.05,3.08-2.28,0-1.46-1.69-2.34-4.36-2.34s-4.38,.88-4.38,2.34c0,1.23,1.17,2.04,3.1,2.28v.82c-1.54,.04-2.98,.04-4.26,.04l.25,1.75c3.1,0,7.24-.04,11-.7l-.18-1.54Zm-7.48-2.65c0-.51,.72-.76,1.95-.76s1.93,.25,1.93,.76-.7,.8-1.93,.8-1.95-.27-1.95-.8Z"/>
      <polygon points="121.47 47.02 131.65 47.02 131.65 45.32 127.85 45.32 127.85 44.06 125.28 44.06 125.28 45.32 121.47 45.32 121.47 47.02"/>
      <polygon points="135.44 44.19 132.87 44.19 132.87 54.74 135.44 54.74 135.44 50.52 137.7 50.52 137.7 48.42 135.44 48.42 135.44 44.19"/>
      <polygon points="125.96 59.44 135.44 59.44 135.44 55.39 123.39 55.39 123.39 57.08 132.91 57.08 132.91 57.86 123.41 57.86 123.41 61.99 136.07 61.99 136.07 60.29 125.96 60.29 125.96 59.44"/>
      <polygon points="159.34 52.62 159.34 51.14 164.32 51.14 164.32 49.1 154.47 49.1 154.47 47 164.23 47 164.23 44.95 151.92 44.95 151.92 51.14 156.77 51.14 156.77 52.62 150.37 52.62 150.37 54.67 165.76 54.67 165.76 52.62 159.34 52.62"/>
      <path d="M158,55.54c-3.87,0-6.21,1.19-6.21,3.31s2.34,3.29,6.21,3.29,6.23-1.19,6.23-3.29-2.36-3.31-6.23-3.31Zm0,4.65c-2.39,0-3.62-.41-3.62-1.34s1.23-1.36,3.62-1.36,3.62,.43,3.62,1.36-1.23,1.34-3.62,1.34Z"/>
    </g>
  </g>
</svg>