<?xml version="1.0" encoding="UTF-8"?><svg id="svg-profile" xmlns="http://www.w3.org/2000/svg" viewBox="0 0 25.43 25.6"><g id="svg-profile-g"><path d="M17.46,12.44c1.46-1.31,2.38-3.2,2.38-5.31,0-3.93-3.2-7.13-7.13-7.13S5.59,3.2,5.59,7.13c0,2.11,.93,4,2.38,5.31C3.3,14.32,0,18.89,0,24.23v1.37H25.43v-1.37c0-5.33-3.3-9.91-7.97-11.79ZM8.33,7.13c0-2.42,1.97-4.38,4.38-4.38s4.38,1.97,4.38,4.38-1.97,4.38-4.38,4.38-4.38-1.97-4.38-4.38ZM2.84,22.86c.67-4.85,4.84-8.6,9.88-8.6s9.2,3.75,9.88,8.6H2.84Z"/></g></svg>