<?xml version="1.0" encoding="UTF-8"?><svg id="svg-waterdweller" xmlns="http://www.w3.org/2000/svg" viewBox="0 0 596.59 57.11"><g id="svg-waterdweller-g"><g><circle cx="34.42" cy="20.65" r="20.65"/><circle cx="51.06" cy="35.54" r="9.93"/><circle cx="74.07" cy="45.34" r="6.94"/><circle cx="13.77" cy="43.34" r="13.77"/></g><path d="M82.73,6.33h9.32l3.67,22.5c.68,4.85,1.43,9.7,2.11,14.67h.25c.93-4.97,1.93-9.88,2.92-14.67l5.35-22.5h7.9l5.28,22.5c.99,4.72,1.93,9.7,2.92,14.67h.31c.68-4.97,1.37-9.88,2.05-14.67l3.67-22.5h8.7l-8.52,46.06h-11.44l-5.16-22.75c-.75-3.61-1.43-7.15-1.99-10.69h-.25c-.62,3.54-1.24,7.09-1.99,10.69l-5.04,22.75h-11.25L82.73,6.33Z"/><path d="M152.91,6.33h10.82l14.8,46.06h-9.64l-3.23-11.81h-14.92l-3.23,11.81h-9.32l14.73-46.06Zm-.19,27.1h10.94l-1.37-5.04c-1.43-4.79-2.67-10.07-3.98-15.04h-.31c-1.18,5.04-2.55,10.26-3.92,15.04l-1.37,5.04Z"/><path d="M188.42,14.04h-12.93V6.33h35.18v7.71h-13.05V52.39h-9.2V14.04Z"/><path d="M218.13,6.33h28.22v7.71h-19.02v10.63h16.16v7.71h-16.16v12.31h19.71v7.71h-28.91V6.33Z"/><path d="M256.36,6.33h16.04c9.64,0,17.28,3.42,17.28,13.99,0,6.9-3.48,11.19-8.77,13.24l10.75,18.84h-10.26l-9.45-17.41h-6.4v17.41h-9.2V6.33Zm15.17,21.38c5.91,0,9.2-2.49,9.2-7.4s-3.29-6.65-9.2-6.65h-5.97v14.05h5.97Z"/><path d="M312.87,6.33h12.62c14.05,0,22.75,7.34,22.75,22.88s-8.7,23.19-22.25,23.19h-13.12V6.33Zm12.06,38.67c8.58,0,13.92-4.6,13.92-15.79s-5.35-15.48-13.92-15.48h-2.86v31.27h2.86Z"/><path d="M351.61,6.33h9.32l3.67,22.5c.68,4.85,1.43,9.7,2.11,14.67h.25c.93-4.97,1.93-9.88,2.92-14.67l5.35-22.5h7.9l5.28,22.5c.99,4.72,1.93,9.7,2.92,14.67h.31c.68-4.97,1.37-9.88,2.05-14.67l3.67-22.5h8.7l-8.52,46.06h-11.44l-5.16-22.75c-.75-3.61-1.43-7.15-1.99-10.69h-.25c-.62,3.54-1.24,7.09-1.99,10.69l-5.04,22.75h-11.25l-8.83-46.06Z"/><path d="M412.96,6.33h28.22v7.71h-19.02v10.63h16.16v7.71h-16.16v12.31h19.71v7.71h-28.91V6.33Z"/><path d="M451.19,6.33h9.2V44.68h18.71v7.71h-27.91V6.33Z"/><path d="M487.12,6.33h9.2V44.68h18.71v7.71h-27.91V6.33Z"/><path d="M523.05,6.33h28.22v7.71h-19.02v10.63h16.16v7.71h-16.16v12.31h19.71v7.71h-28.91V6.33Z"/><path d="M561.28,6.33h16.04c9.64,0,17.28,3.42,17.28,13.99,0,6.9-3.48,11.19-8.77,13.24l10.75,18.84h-10.26l-9.45-17.41h-6.4v17.41h-9.2V6.33Zm15.17,21.38c5.91,0,9.2-2.49,9.2-7.4s-3.29-6.65-9.2-6.65h-5.97v14.05h5.97Z"/></g></svg>