<?xml version="1.0" encoding="UTF-8"?><svg id="svg-about" xmlns="http://www.w3.org/2000/svg" viewBox="0 0 51.9 51.9"><g id="svg-about-g"><g><path d="M25.95,51.9C11.64,51.9,0,40.26,0,25.95S11.64,0,25.95,0s25.95,11.64,25.95,25.95-11.64,25.95-25.95,25.95Zm0-47.32C14.17,4.58,4.58,14.17,4.58,25.95s9.59,21.37,21.37,21.37,21.37-9.59,21.37-21.37S37.74,4.58,25.95,4.58Z"/><rect x="23.66" y="22.32" width="4.58" height="18.23"/><path d="M25.95,18.58c-1.87,0-3.39-1.52-3.39-3.39s1.52-3.39,3.39-3.39,3.39,1.52,3.39,3.39-1.52,3.39-3.39,3.39Z"/></g></g></svg>