<?xml version="1.0" encoding="UTF-8"?>
<svg width="1200pt" height="1200pt" version="1.1" viewBox="0 0 1200 1200" xmlns="http://www.w3.org/2000/svg">
 <g>
  <path d="m600 0c-78.793 0-156.82 15.52-229.61 45.672s-138.94 74.348-194.65 130.07c-55.719 55.715-99.914 121.86-130.07 194.65s-45.672 150.82-45.672 229.61c0 159.13 63.215 311.74 175.74 424.26 112.52 112.52 265.13 175.73 424.27 175.73 159.13 0 311.74-63.215 424.26-175.74 112.52-112.52 175.74-265.13 175.74-424.26 0-159.13-63.215-311.74-175.73-424.27-112.52-112.52-265.13-175.74-424.26-175.74zm0 67.762c69.121 0 137.56 13.766 201.42 40.516 63.859 26.746 121.88 65.953 170.76 115.38s87.645 108.1 114.09 172.67c26.453 64.574 40.066 133.79 40.066 203.68 0 141.16-55.457 276.53-154.16 376.34-98.707 99.816-232.58 155.89-372.18 155.89-69.121 0-137.57-13.766-201.43-40.516-63.855-26.746-121.88-65.949-170.76-115.37-48.875-49.422-87.645-108.1-114.1-172.67-26.449-64.574-40.066-133.79-40.066-203.68 0-69.898 13.613-139.11 40.066-203.68 26.449-64.574 65.219-123.25 114.1-172.68 48.875-49.422 106.9-88.625 170.76-115.38 63.859-26.746 132.3-40.512 201.43-40.512z"/>
  <path d="m921.72 813.11h-18.391v-127.39l32.672-32.684c5.8906-5.9023 5.8828-15.469-0.015625-21.363l-35.617-35.617c-5.668-5.6758-15.703-5.668-21.371 0l-166.61 166.68h-134.09l-39.828-221.32c31.492-2.6016 49.086 5.2656 53.012 10.242 0.070313 0.089844 0.16016 0.15625 0.23438 0.24219 0.35547 0.42969 0.76562 0.81641 1.1719 1.2109 0.32812 0.31641 0.64062 0.64844 0.99219 0.93359 0.35938 0.28906 0.75781 0.52734 1.1484 0.78516 0.46094 0.30469 0.91406 0.61719 1.4023 0.86719 0.10547 0.054687 0.1875 0.12891 0.29297 0.18359 0.24219 0.11719 0.49609 0.15625 0.73828 0.26172 0.65234 0.27734 1.3086 0.52344 1.9922 0.70312 0.42188 0.11328 0.84375 0.19922 1.2695 0.27344 0.60938 0.10938 1.2148 0.17188 1.832 0.20703 0.26172 0.015625 0.52344 0.089844 0.78516 0.089844 0.15234 0 0.29688-0.058594 0.44531-0.0625 1.2188-0.035157 2.4375-0.17188 3.6289-0.50391 0.078125-0.023437 0.14844-0.0625 0.23047-0.085937 1.0898-0.32422 2.1367-0.80078 3.1523-1.3789 0.32422-0.18359 0.62891-0.39062 0.94141-0.59766 0.32031-0.21484 0.66406-0.37891 0.97656-0.62109 0.47656-0.375 0.85938-0.81641 1.2773-1.2344 0.21484-0.21484 0.44141-0.39453 0.64453-0.625 0.86719-0.97656 1.5781-2.0352 2.1523-3.1641 0.042969-0.082031 0.10938-0.13672 0.14844-0.21875 5.2539-10.773 24.707-25.613 62.258-31.965 41.039-6.9492 63.594 2.625 68.102 8.3359 0.10547 0.13281 0.23438 0.22656 0.34375 0.35547 0.42578 0.50781 0.88281 0.97656 1.3711 1.418 0.25781 0.23828 0.51953 0.47266 0.79297 0.6875 0.48438 0.38281 0.99219 0.72266 1.5195 1.043 0.31641 0.19531 0.63281 0.38672 0.96094 0.55469 0.52344 0.26562 1.0625 0.48828 1.6172 0.69531 0.36719 0.13672 0.73047 0.26953 1.1055 0.37891 0.53516 0.15234 1.082 0.25781 1.6367 0.35156 0.42969 0.074219 0.85547 0.13672 1.2891 0.17188 0.50391 0.039063 1.0117 0.042969 1.5234 0.03125 0.51172-0.007813 1.0156-0.042969 1.5234-0.10156 0.23438-0.027343 0.46094-0.007812 0.69922-0.046874 0.25391-0.042969 0.47656-0.14453 0.72266-0.19922 0.5-0.10938 0.98828-0.24609 1.4766-0.40625 0.48828-0.16016 0.96094-0.33984 1.4219-0.54688 0.42187-0.1875 0.82812-0.39844 1.2344-0.625 0.48828-0.27344 0.94922-0.57031 1.3984-0.89062 0.19141-0.13672 0.39844-0.22656 0.58203-0.37109 0.17578-0.13672 0.30078-0.30859 0.46875-0.45312 0.41016-0.35547 0.78906-0.72656 1.1602-1.1211 0.32812-0.35156 0.64453-0.70312 0.93359-1.0781 0.29688-0.38281 0.5625-0.78516 0.82031-1.1953 0.26562-0.42188 0.51953-0.84375 0.73828-1.2852 0.21484-0.42969 0.39062-0.86719 0.56641-1.3164 0.17578-0.45312 0.33984-0.90625 0.46875-1.375 0.13281-0.46875 0.22266-0.94922 0.30859-1.4336 0.085937-0.48437 0.15625-0.96094 0.19531-1.4531 0.035156-0.46875 0.039062-0.9375 0.03125-1.4102-0.007813-0.54297-0.042969-1.0742-0.10938-1.6133-0.027343-0.21875-0.007812-0.43359-0.042968-0.65234-11.238-66.406-47.668-124.46-102.57-163.46-50.77-36.074-111.73-51.793-173.13-45.09l-3.1758-18.758c-1.3945-8.2305-9.1641-13.742-17.43-12.379-8.2305 1.3945-13.77 9.1953-12.379 17.43l3.1758 18.75c-60.188 13.867-112.57 48.793-148.64 99.566-38.926 54.762-54.223 121.39-43.129 187.64 0.003906 0.027344 0.007812 0.054687 0.011718 0.082031 0.019532 0.125 0.035156 0.25 0.054688 0.375 0.089844 0.54297 0.26562 1.0469 0.41406 1.5625 0.089844 0.3125 0.14062 0.63281 0.24609 0.9375 0.30859 0.87891 0.6875 1.7227 1.1445 2.5117 0.003907 0.007813 0.007813 0.019531 0.011719 0.027344 0.47266 0.81641 1.0195 1.5703 1.625 2.2773 0.18359 0.21484 0.40625 0.39453 0.60156 0.59766 0.45313 0.46875 0.91016 0.92578 1.418 1.332 0.26953 0.21484 0.56641 0.39844 0.85156 0.59766 0.50781 0.35547 1.0273 0.6875 1.5742 0.97656 0.13672 0.074219 0.25 0.17578 0.39063 0.24609 0.16016 0.078126 0.33203 0.10156 0.49609 0.17578 0.71875 0.32031 1.457 0.57812 2.2266 0.78516 0.27734 0.074219 0.54688 0.16797 0.82812 0.22656 0.99609 0.20703 2.0117 0.34375 3.0547 0.34375h0.003906 0.003907 0.011719c0.83203 0 1.6758-0.070312 2.5234-0.21094 0.35547-0.058594 0.67188-0.19531 1.0156-0.28125 0.35156-0.085937 0.69141-0.17578 1.0391-0.28516 1.0625-0.33984 2.0664-0.76953 3-1.3125 0.12891-0.074219 0.26563-0.12109 0.39453-0.19922 1.0664-0.66406 2.0078-1.4688 2.8672-2.3594 0.22266-0.23047 0.41406-0.47656 0.62109-0.71875 0.71875-0.84766 1.3477-1.7617 1.8672-2.7461 0.074219-0.13672 0.1875-0.23438 0.25391-0.375 5.25-10.777 24.707-25.617 62.258-31.965 40.996-6.9531 63.586 2.6172 68.094 8.332 0.070313 0.089843 0.16016 0.15625 0.23438 0.24219 0.35938 0.43359 0.76953 0.82031 1.1758 1.2148 0.32422 0.3125 0.63281 0.64453 0.98047 0.92188 0.36719 0.29297 0.77344 0.53906 1.1719 0.80469 0.45312 0.30078 0.89844 0.60547 1.375 0.85156 0.10547 0.054687 0.19531 0.13281 0.30469 0.1875 0.25 0.12109 0.51172 0.16406 0.76172 0.26953 0.64062 0.26953 1.2852 0.51172 1.9531 0.69141 0.43359 0.11719 0.86328 0.20313 1.2969 0.28125 0.59766 0.10547 1.1953 0.16797 1.8008 0.20313 0.26562 0.015624 0.53125 0.089843 0.79688 0.089843 0.15234 0 0.30078-0.058593 0.45312-0.0625 1.2227-0.035156 2.4375-0.17188 3.6289-0.50391 0.066406-0.019531 0.12891-0.054687 0.19531-0.074219 1.1016-0.32422 2.1562-0.80859 3.1836-1.3945 0.32422-0.18359 0.625-0.38672 0.9375-0.59766 0.32422-0.21484 0.66797-0.37891 0.97656-0.62109 0.47266-0.375 0.85547-0.81641 1.2734-1.2305 0.21484-0.21484 0.44531-0.39844 0.64844-0.62891 0.86328-0.97266 1.5781-2.0352 2.1484-3.1641 0.042969-0.082032 0.10938-0.13672 0.14844-0.21875 4.5117-9.2578 19.598-21.48 47.543-28.777l38.91 216.22-272.87-0.011719c-8.3477 0-15.113 6.7656-15.113 15.113v50.406c0 8.3477 6.7656 15.113 15.113 15.113h39.34l-38.395 59.859c-2.9805 4.6562-3.1875 10.562-0.53906 15.41 2.6484 4.8477 7.7344 7.8672 13.262 7.8672h53.535c5.1484 0 9.9453-2.6211 12.723-6.9531l48.863-76.184h157.63l11.156 52.906h-46.555c-8.3477 0-15.113 6.7656-15.113 15.113 0 8.3477 6.7656 15.113 15.113 15.113h130.37c8.3477 0 15.113-6.7656 15.113-15.113 0-8.3477-6.7656-15.113-15.113-15.113h-52.926l-11.156-52.906h147.46c0.10156 0 0.20313-0.027344 0.30859-0.03125h19.422c0.16797 0.25 0.28516 0.52344 0.46875 0.76562l58.051 76.426c2.8555 3.7656 7.3125 5.9688 12.035 5.9688h53.535c5.7422 0 10.988-3.2539 13.543-8.3984 2.5469-5.1445 1.9648-11.285-1.5039-15.859l-44.742-58.906h71.129c8.3477 0 15.113-6.7656 15.113-15.113-0.003907-8.3398-6.7695-15.109-15.117-15.109zm-468.18-273.89c-3.3242-12.355-4.1914-31.719-3.5273-44.301 0.4375-8.332-5.957-15.449-14.289-15.895-8.2695-0.48828-15.449 5.9375-15.898 14.277-0.3125 5.75-1.0508 26.926 2.9453 46.586-17.074-3.6016-37.906-3.7656-60.234 0.007812-23.43 3.9648-43.688 11.488-58.938 21.5-1.3789-47.879 12.703-94.703 40.934-134.44 24.898-35.051 58.648-61.484 97.598-77.172-12.949 20.586-24.016 48.082-21.297 80.293 0.66406 7.8867 7.2695 13.844 15.039 13.844 0.42969 0 0.85547-0.019531 1.2891-0.054688 8.3164-0.69922 14.496-8.0117 13.793-16.328-3.8906-46.102 31.191-81.949 41.527-91.441 108.54-16.336 211.53 49.488 244.23 151.59-17.492-4.1055-39.199-4.4844-62.582-0.53906-23.707 4.0156-44.148 11.68-59.461 21.867-2.9688-21.59-11.891-56.801-38.727-87.188-5.5312-6.25-15.082-6.8516-21.336-1.3203-6.2539 5.5273-6.8477 15.078-1.3203 21.336 22.523 25.5 29.5 56.082 31.668 73.238-18.125-5.0586-41.41-5.8164-66.625-1.5586-26.586 4.5078-49.062 13.602-64.793 25.703zm419.56 273.89h-10.43v-86.719l10.43-10.434zm-97.117 0 56.461-56.48v56.48zm-486.16-20.145h428.83 0.003906c0.99609 0 1.9883-0.10547 2.9648-0.30078 0.40234-0.082031 0.77344-0.23437 1.1602-0.34375 0.55859-0.16016 1.1211-0.29297 1.6641-0.51562 0.45703-0.1875 0.86719-0.45313 1.2969-0.68359 0.4375-0.23438 0.88281-0.42578 1.3008-0.70703 0.82812-0.55469 1.6016-1.1836 2.3047-1.8867l160.34-160.41 14.25 14.254-170.71 170.77h-443.4zm43.828 103.31h-17.625l33.938-52.906h17.617zm503.61 0-40.207-52.938h15.684c0.16797 0.25 0.28516 0.52344 0.46875 0.76562l39.629 52.168z"/>
 </g>
</svg>
