<svg id="svg-help" xmlns="http://www.w3.org/2000/svg" width="20" height="20" viewBox="0 0 20 20"><g id="svg-help-g"><g><path fill="#000" fill-rule="evenodd" d="M47.586 7049l1.414-1.203v2.406L47.586 7049zM59 7047.797l1.415 1.203-1.415 1.203v-2.406zM52.797 7054h2.406L54 7055.414 52.797 7054zM54 7042.586l1.203 1.414h-2.406l1.203-1.414zm8 8.414a1 1 0 0 1-1 1h-2a2 2 0 0 0-2 2v2a1 1 0 0 1-1 1h-4a1 1 0 0 1-1-1v-2a2 2 0 0 0-2-2h-2a1 1 0 0 1-1-1v-4a1 1 0 0 1 1-1h2a2 2 0 0 0 2-2v-2a1 1 0 0 1 1-1h4a1 1 0 0 1 1 1v2a2 2 0 0 0 2 2h2a1 1 0 0 1 1 1v4zm0-7h-2a1 1 0 0 1-1-1v-2a2 2 0 0 0-2-2h-6a2 2 0 0 0-2 2v2a1 1 0 0 1-1 1h-2a2 2 0 0 0-2 2v6.001c0 1.104.895 1.999 1.999 1.999H48c.552 0 .999.45.999 1.002V7057a2 2 0 0 0 2 2h6a2 2 0 0 0 2-2v-2a1 1 0 0 1 1-1h2a2 2 0 0 0 2-2v-6a2 2 0 0 0-2-2z" transform="translate(-44 -7039)"/></g></g></svg>

