<?xml version="1.0" encoding="UTF-8"?>
<svg width="1200pt" height="1200pt" version="1.1" viewBox="0 0 1200 1200" xmlns="http://www.w3.org/2000/svg">
 <g>
  <path stroke="black" stroke-width="30" d="m750 1175h-300c-41.352 0-75-33.648-75-75v-250c0-13.801-11.25-25-25-25h-250c-41.352 0-75-33.648-75-75v-300c0-41.352 33.648-75 75-75h250c13.75 0 25-11.199 25-25v-250c0-41.352 33.648-75 75-75h300c41.352 0 75 33.648 75 75v250c0 13.801 11.25 25 25 25h250c41.352 0 75 33.648 75 75v300c0 41.352-33.648 75-75 75h-250c-13.75 0-25 11.199-25 25v250c0 41.352-33.648 75-75 75zm-650-750c-13.75 0-25 11.199-25 25v300c0 13.801 11.25 25 25 25h250c41.352 0 75 33.648 75 75v250c0 13.801 11.25 25 25 25h300c13.75 0 25-11.199 25-25v-250c0-41.352 33.648-75 75-75h250c13.75 0 25-11.199 25-25v-300c0-13.801-11.25-25-25-25h-250c-41.352 0-75-33.648-75-75v-250c0-13.801-11.25-25-25-25h-300c-13.75 0-25 11.199-25 25v250c0 41.352-33.648 75-75 75z"/>
  <path stroke="black" stroke-width="30"d="m700 325h-200c-9.25 0-17.699-5.1016-22-13.199-4.3984-8.1484-3.8984-18 1.1992-25.648l100-150c9.3008-13.898 32.301-13.898 41.602 0l100 150c5.1484 7.6484 5.6016 17.551 1.1992 25.648-4.3008 8.0977-12.75 13.199-22 13.199zm-153.25-50h106.55l-53.301-79.949z"/>
  <path stroke="black" stroke-width="30"d="m600 1075c-8.3516 0-16.148-4.1484-20.801-11.148l-100-150c-5.1484-7.6484-5.6016-17.551-1.1992-25.648 4.3008-8.1016 12.75-13.203 22-13.203h200c9.25 0 17.699 5.1016 22 13.199 4.3984 8.1484 3.8984 18-1.1992 25.648l-100 150c-4.6523 7.0039-12.449 11.152-20.801 11.152zm-53.25-150 53.25 79.949 53.25-79.949z"/>
  <path stroke="black" stroke-width="30"d="m900 725c-4.0508 0-8.1016-1-11.801-2.9492-8.0977-4.3516-13.199-12.801-13.199-22.051v-200c0-9.25 5.1016-17.699 13.199-22.051 8.1484-4.3008 17.898-3.8516 25.699 1.25l150 100c6.9023 4.6523 11.102 12.449 11.102 20.801s-4.1992 16.148-11.148 20.801l-150 100c-4.2031 2.8008-9 4.1992-13.852 4.1992zm25-178.3v106.6l79.949-53.301z"/>
  <path stroke="black" stroke-width="30"d="m300 725c-4.8516 0-9.6484-1.3984-13.852-4.1992l-150-100c-6.9492-4.6523-11.148-12.449-11.148-20.801s4.1992-16.148 11.148-20.801l150-100c7.6992-5.1016 17.551-5.5508 25.699-1.25 8.0508 4.3516 13.152 12.801 13.152 22.051v200c0 9.25-5.1016 17.699-13.199 22.051-3.6992 1.9492-7.75 2.9492-11.801 2.9492zm-104.95-125 79.949 53.301v-106.6z"/>
  <path stroke="black" stroke-width="30"d="m600 725c-68.949 0-125-56.102-125-125s56.051-125 125-125 125 56.102 125 125-56.051 125-125 125zm0-200c-41.352 0-75 33.648-75 75s33.648 75 75 75 75-33.648 75-75-33.648-75-75-75z"/>
 </g>
</svg>
