<?xml version="1.0" encoding="UTF-8"?>
<svg width="1200pt" height="1200pt" version="1.1" viewBox="0 0 1200 1200" xmlns="http://www.w3.org/2000/svg">
 <path stroke="black" stroke-width="20" d="m14.117 571.77 211.77-158.82c23.266-17.449 56.469-0.84766 56.469 28.234v317.65c0 29.082-33.203 45.684-56.469 28.234l-211.77-158.82c-18.824-14.117-18.824-42.352 0-56.469zm197.65 116.47v-176.47l-117.65 88.234zm388.23 88.234c-97.461 0-176.47-79.008-176.47-176.47s79.008-176.47 176.47-176.47 176.47 79.008 176.47 176.47-79.008 176.47-176.47 176.47zm0-70.586c58.477 0 105.88-47.406 105.88-105.88s-47.406-105.88-105.88-105.88-105.88 47.406-105.88 105.88 47.406 105.88 105.88 105.88zm585.88-134.12c18.824 14.117 18.824 42.352 0 56.469l-211.77 158.82c-23.266 17.449-56.469 0.84766-56.469-28.234v-317.65c0-29.082 33.203-45.684 56.469-28.234zm-197.65-60v176.47l117.65-88.234zm-416.47 674.12-158.82-211.77c-17.449-23.266-0.84766-56.469 28.234-56.469h317.65c29.082 0 45.684 33.203 28.234 56.469l-158.82 211.77c-14.117 18.824-42.352 18.824-56.469 0zm116.47-197.65h-176.47l88.234 117.65zm-116.47-974.12c14.117-18.824 42.352-18.824 56.469 0l158.82 211.77c17.449 23.266 0.84766 56.469-28.234 56.469h-317.65c-29.082 0-45.684-33.203-28.234-56.469zm-60 197.65h176.47l-88.234-117.65z" fill-rule="evenodd"/>
</svg>
