<?xml version="1.0" encoding="UTF-8"?>
<svg width="1200pt" height="1200pt" version="1.1" viewBox="0 0 1200 1200" xmlns="http://www.w3.org/2000/svg">
 <g>
  <path d="m600 120c-109.76 0-216.18 37.773-301.3 106.46l-0.20312-94.484c-0.011719-6.6211-5.3867-11.977-12-11.977-6.6289-0.007812-12.012 5.3906-12 12.023l0.25781 120.05c0.011719 6.6094 5.3672 11.965 11.977 11.977l119.59 0.25391h0.023437c6.6133 0 11.988-5.3555 12-11.977 0.011719-6.6289-5.3516-12.012-11.977-12.023l-86.426-0.18359c79.789-62.125 178.45-96.117 280.05-96.117 251.44 0 456 204.56 456 456 0 91.383-26.93 179.54-77.871 254.94-3.707 5.4961-2.2656 12.953 3.2227 16.664 2.0625 1.3906 4.3984 2.0547 6.707 2.0547 3.8555 0 7.6367-1.8516 9.9531-5.2773 53.641-79.391 81.988-172.2 81.988-268.38 0-264.67-215.33-480-480-480z"/>
  <path d="m600 1080c109.7 0 215.54-37.422 300.57-105.78l0.18359 93.805c0.007813 6.6211 5.3828 11.977 12 11.977h0.023438c6.6289-0.011719 11.988-5.3945 11.977-12.023l-0.23828-120.3c-0.011719-6.6211-5.3789-11.977-12-11.977h-119.61c-6.6289 0-12 5.3711-12 12 0 6.6289 5.3711 12 12 12h87.203c-79.836 62.23-178.19 96.301-280.11 96.301-251.44 0-456-204.56-456-456 0-91.383 26.93-179.54 77.871-254.94 3.707-5.4961 2.2656-12.953-3.2227-16.664-5.5078-3.707-12.953-2.2578-16.664 3.2227-53.637 79.391-81.984 172.2-81.984 268.38 0 264.67 215.33 480 480 480z"/>
  <path d="m433.93 832.02c0 37.559 30.555 68.113 68.113 68.113h195.91c37.559 0 68.113-30.555 68.113-68.113 0-23.258-11.711-43.824-29.543-56.121 17.828-12.293 29.543-32.863 29.543-56.113 0-23.258-11.711-43.824-29.543-56.121 17.828-12.293 29.543-32.863 29.543-56.113 0-20.879-9.4219-40.082-25.043-52.793 13.441-12.953 21.297-30.93 21.297-50.172v-1.957c0-29.977-8.6914-51.363-29.988-73.824-9.7773-10.312-21.496-20.262-35.82-30.418l-19.676-13.945c7.1797-5.8164 11.871-14.594 11.871-24.535v-52.336c0-17.48-14.215-31.695-31.695-31.695h-114.05c-17.48 0-31.695 14.215-31.695 31.695v52.336c0 9.9414 4.6914 18.715 11.871 24.531l-19.68 13.945c-14.316 10.152-26.035 20.105-35.812 30.418-21.297 22.457-29.988 43.848-29.988 73.824v1.957c0 19.242 7.8594 37.219 21.297 50.172-15.621 12.707-25.043 31.918-25.043 52.793 0 23.25 11.711 43.824 29.543 56.113-17.828 12.297-29.543 32.863-29.543 56.121 0 23.25 11.711 43.824 29.543 56.113-17.816 12.301-29.531 32.867-29.531 56.125zm101.36-524.45c0-4.2422 3.4531-7.6953 7.6953-7.6953h114.05c4.2422 0 7.6953 3.4531 7.6953 7.6953v52.336c0 4.2461-3.4531 7.6992-7.6953 7.6992h-114.05c-4.2422 0-7.6953-3.4531-7.6953-7.6992zm-33.242 480.32c6.6289 0 12-5.3711 12-12s-5.3711-12-12-12c-24.328 0-44.113-19.793-44.113-44.113 0-24.328 19.789-44.121 44.113-44.121 6.6289 0 12-5.3711 12-12s-5.3711-12-12-12c-24.328 0-44.113-19.789-44.113-44.113 0-17.898 10.695-33.902 27.246-40.766 4.3008-1.7812 7.1758-5.8906 7.3945-10.535 0.21094-4.6445-2.2773-9-6.3984-11.168-15.109-7.957-24.496-23.48-24.496-40.5v-1.957c0-27.172 8.9531-42.078 23.402-57.309 8.6914-9.1641 19.254-18.105 32.277-27.348l37.191-26.359h90.906l37.188 26.359c13.031 9.2383 23.598 18.18 32.285 27.348 14.449 15.234 23.402 30.141 23.402 57.309v1.957c0 17.02-9.3867 32.543-24.496 40.5-4.1172 2.168-6.6094 6.5195-6.3984 11.168 0.21484 4.6445 3.0938 8.7539 7.3945 10.535 16.551 6.8594 27.246 22.863 27.246 40.766 0 24.328-19.789 44.113-44.113 44.113-6.6289 0-12 5.3711-12 12s5.3711 12 12 12c24.328 0 44.113 19.793 44.113 44.121 0 24.324-19.789 44.113-44.113 44.113-6.6289 0-12 5.3711-12 12s5.3711 12 12 12c24.328 0 44.113 19.793 44.113 44.121s-19.789 44.113-44.113 44.113l-195.92 0.003906c-24.328 0-44.113-19.789-44.113-44.113 0-24.332 19.785-44.125 44.113-44.125z"/>
 </g>
</svg>
