<!-- <?xml version="1.0" encoding="UTF-8"?>
<svg width="1200pt" height="1200pt" version="1.1" viewBox="0 0 1200 1200" xmlns="http://www.w3.org/2000/svg">
 <g>
  <path stroke="black" stroke-width="50" d="m1012.5 243.75h-41.324l-36.039-156.13c-12-51.582-57.301-87.617-110.14-87.617h-450c-52.836 0-98.137 36.039-110.16 87.656l-36.02 156.09h-41.324c-10.367 0-18.75 8.3984-18.75 18.75v112.5c0 10.352 8.3828 18.75 18.75 18.75h38.758l49.801 714.02c3.6758 51.73 47.156 92.23 98.945 92.23h450c51.805 0 95.27-40.52 98.961-92.27l49.781-713.98h38.758c10.367 0 18.75-8.3984 18.75-18.75v-112.5c0-10.352-8.3828-18.75-18.75-18.75zm-711.13-147.64c8.043-34.52 38.305-58.613 73.633-58.613h450c35.324 0 65.586 24.113 73.613 58.594l34.07 147.66h-130.54l-33.957-135.8c-2.082-8.3438-9.582-14.195-18.188-14.195h-300c-8.6055 0-16.086 5.8516-18.188 14.195l-33.957 135.8h-130.55l34.051-147.64zm462.11 147.64h-326.96l28.145-112.5h270.71l28.145 112.5zm230.27 112.5h-131.25c-10.367 0-18.75 8.3984-18.75 18.75s8.3828 18.75 18.75 18.75h73.633l-49.574 711.36c-2.3047 32.176-29.324 57.395-61.555 57.395h-450c-32.23 0-59.25-25.219-61.539-57.375l-49.594-711.38h448.63c10.367 0 18.75-8.3984 18.75-18.75s-8.3828-18.75-18.75-18.75h-506.25v-75h787.5z"/>
  <path stroke="black" stroke-width="50"  d="m693.75 586.69v-99.188c0-10.352-8.3828-18.75-18.75-18.75h-150c-10.367 0-18.75 8.3984-18.75 18.75v99.168c-44.738 17.477-75 60.336-75 109.33v260.25c0 51.695 42.055 93.75 93.75 93.75h150c51.695 0 93.75-42.055 93.75-93.75v-260.25c0-26.477-8.6445-51.543-24.957-72.449-12.863-16.539-30.355-29.117-50.043-36.863zm-225 182.06h262.5v93.75h-262.5zm187.5-262.5v75h-112.5v-75zm-128.81 112.5h145.11c16.781 4.7266 31.145 14.324 41.68 27.844 11.137 14.289 17.023 31.352 17.023 49.406v35.25h-262.5v-35.25c0-36.094 24.02-67.555 58.688-77.25zm147.56 393.75h-150c-31.012 0-56.25-25.238-56.25-56.25v-56.25h262.5v56.25c0 31.012-25.238 56.25-56.25 56.25z"/>
  <path stroke="black" stroke-width="50"d="m806.25 375c0 10.355-8.3945 18.75-18.75 18.75s-18.75-8.3945-18.75-18.75 8.3945-18.75 18.75-18.75 18.75 8.3945 18.75 18.75"/>
 </g>
</svg> -->
<?xml version="1.0" encoding="UTF-8"?>
<svg width="1100" height="1100"    preserveAspectRatio='none' version="1.1" viewBox="0 0 1100 1100" xmlns="http://www.w3.org/2000/svg">
 <path stroke="black"   stroke-width="60" d="m963.54 129.48c-12.152-12.172-33.398-12.188-45.574-0.007812l-56.391 56.395c-12.531 12.531-12.551 32.902-0.078125 45.473l-20.289 20.289c-13.57 13.559-33.809 18.598-52.84 13.176-74.766-21.359-155.23-0.53516-210.07 54.309l-30.609 30.609c-15.477 15.469-17.902 38.91-7.6914 57.113l-210.93 210.94c-18.203-10.203-41.645-7.7734-57.105 7.6875l-117.36 117.37c-22.43 22.422-34.781 52.242-34.781 83.965 0 31.715 12.352 61.535 34.781 83.965l134.64 134.64c23.145 23.148 53.555 34.723 83.965 34.723 30.398 0 60.809-11.578 83.953-34.723l117.38-117.37c15.465-15.465 17.891-38.902 7.6875-57.105l210.94-210.94c7.2383 4.0586 15.234 6.2891 23.305 6.2891 12.234 0 24.48-4.6641 33.797-13.98l30.609-30.609c55.02-55.02 75.738-135.76 54.059-210.71-4.5586-15.762-0.09375-32.855 11.66-44.609l25.254-25.262c5.75 4.3984 12.582 6.7383 19.488 6.7383 8.2617 0 16.512-3.1445 22.793-9.4258l56.391-56.395c12.562-12.562 12.562-33.008 0-45.57zm-616.11 503.86 208.14-208.14 219.21 219.21-208.14 208.14zm92.75 395.09c-36.938 36.945-97.043 36.93-133.98 0l-134.64-134.64c-17.895-17.898-27.75-41.691-27.75-66.996 0-25.305 9.8555-49.102 27.75-66.996l35.09-35.09 268.63 268.62zm117.38-117.37-65.309 65.305-268.63-268.62 65.309-65.309c9.2812-9.2812 24.375-9.2812 33.656 0l234.97 234.97c9.2812 9.2773 9.2812 24.371 0 33.652zm372.06-561.66c-17.941 17.934-24.738 44.086-17.754 68.242 19.254 66.551 0.87891 138.23-47.965 187.07l-30.609 30.609c-9.2812 9.2812-24.375 9.2812-33.656 0l-234.97-234.96c-9.2812-9.2812-9.2812-24.383 0-33.664l30.609-30.609c48.691-48.68 120.15-67.141 186.52-48.203 27.445 7.8242 56.684 0.44141 76.395-19.285l20.277-20.277 76.113 76.121zm123.93-84.348-56.391 56.395c-3.2227 3.2305-8.4375 3.2031-11.637 0l-106.97-106.98c-3.2109-3.2031-3.2109-8.4258 0-11.633l56.391-56.395c3.1289-3.1211 8.5078-3.1016 11.625 0l106.98 106.98c3.2109 3.207 3.2109 8.4297 0 11.633z"/>
</svg>