<?xml version="1.0" encoding="UTF-8"?>
<svg width="1200pt" height="1200pt" version="1.1" viewBox="0 0 1200 1200" xmlns="http://www.w3.org/2000/svg">
 <g>
  <path stroke="black" stroke-width="50" d="m1012.5 243.75h-41.324l-36.039-156.13c-12-51.582-57.301-87.617-110.14-87.617h-450c-52.836 0-98.137 36.039-110.16 87.656l-36.02 156.09h-41.324c-10.367 0-18.75 8.3984-18.75 18.75v112.5c0 10.352 8.3828 18.75 18.75 18.75h38.758l49.801 714.02c3.6758 51.73 47.156 92.23 98.945 92.23h450c51.805 0 95.27-40.52 98.961-92.27l49.781-713.98h38.758c10.367 0 18.75-8.3984 18.75-18.75v-112.5c0-10.352-8.3828-18.75-18.75-18.75zm-711.13-147.64c8.043-34.52 38.305-58.613 73.633-58.613h450c35.324 0 65.586 24.113 73.613 58.594l34.07 147.66h-130.54l-33.957-135.8c-2.082-8.3438-9.582-14.195-18.188-14.195h-300c-8.6055 0-16.086 5.8516-18.188 14.195l-33.957 135.8h-130.55l34.051-147.64zm462.11 147.64h-326.96l28.145-112.5h270.71l28.145 112.5zm230.27 112.5h-131.25c-10.367 0-18.75 8.3984-18.75 18.75s8.3828 18.75 18.75 18.75h73.633l-49.574 711.36c-2.3047 32.176-29.324 57.395-61.555 57.395h-450c-32.23 0-59.25-25.219-61.539-57.375l-49.594-711.38h448.63c10.367 0 18.75-8.3984 18.75-18.75s-8.3828-18.75-18.75-18.75h-506.25v-75h787.5z"/>
  <path stroke="black" stroke-width="50"  d="m693.75 586.69v-99.188c0-10.352-8.3828-18.75-18.75-18.75h-150c-10.367 0-18.75 8.3984-18.75 18.75v99.168c-44.738 17.477-75 60.336-75 109.33v260.25c0 51.695 42.055 93.75 93.75 93.75h150c51.695 0 93.75-42.055 93.75-93.75v-260.25c0-26.477-8.6445-51.543-24.957-72.449-12.863-16.539-30.355-29.117-50.043-36.863zm-225 182.06h262.5v93.75h-262.5zm187.5-262.5v75h-112.5v-75zm-128.81 112.5h145.11c16.781 4.7266 31.145 14.324 41.68 27.844 11.137 14.289 17.023 31.352 17.023 49.406v35.25h-262.5v-35.25c0-36.094 24.02-67.555 58.688-77.25zm147.56 393.75h-150c-31.012 0-56.25-25.238-56.25-56.25v-56.25h262.5v56.25c0 31.012-25.238 56.25-56.25 56.25z"/>
  <path stroke="black" stroke-width="50"d="m806.25 375c0 10.355-8.3945 18.75-18.75 18.75s-18.75-8.3945-18.75-18.75 8.3945-18.75 18.75-18.75 18.75 8.3945 18.75 18.75"/>
 </g>
</svg>
