<?xml version="1.0" encoding="UTF-8"?>
<svg width="1200pt" height="1200pt" version="1.1" viewBox="0 0 1100 1100" xmlns="http://www.w3.org/2000/svg">
 <path stroke="black" stroke-width="60" d="m963.54 129.48c-12.152-12.172-33.398-12.188-45.574-0.007812l-56.391 56.395c-12.531 12.531-12.551 32.902-0.078125 45.473l-20.289 20.289c-13.57 13.559-33.809 18.598-52.84 13.176-74.766-21.359-155.23-0.53516-210.07 54.309l-30.609 30.609c-15.477 15.469-17.902 38.91-7.6914 57.113l-210.93 210.94c-18.203-10.203-41.645-7.7734-57.105 7.6875l-117.36 117.37c-22.43 22.422-34.781 52.242-34.781 83.965 0 31.715 12.352 61.535 34.781 83.965l134.64 134.64c23.145 23.148 53.555 34.723 83.965 34.723 30.398 0 60.809-11.578 83.953-34.723l117.38-117.37c15.465-15.465 17.891-38.902 7.6875-57.105l210.94-210.94c7.2383 4.0586 15.234 6.2891 23.305 6.2891 12.234 0 24.48-4.6641 33.797-13.98l30.609-30.609c55.02-55.02 75.738-135.76 54.059-210.71-4.5586-15.762-0.09375-32.855 11.66-44.609l25.254-25.262c5.75 4.3984 12.582 6.7383 19.488 6.7383 8.2617 0 16.512-3.1445 22.793-9.4258l56.391-56.395c12.562-12.562 12.562-33.008 0-45.57zm-616.11 503.86 208.14-208.14 219.21 219.21-208.14 208.14zm92.75 395.09c-36.938 36.945-97.043 36.93-133.98 0l-134.64-134.64c-17.895-17.898-27.75-41.691-27.75-66.996 0-25.305 9.8555-49.102 27.75-66.996l35.09-35.09 268.63 268.62zm117.38-117.37-65.309 65.305-268.63-268.62 65.309-65.309c9.2812-9.2812 24.375-9.2812 33.656 0l234.97 234.97c9.2812 9.2773 9.2812 24.371 0 33.652zm372.06-561.66c-17.941 17.934-24.738 44.086-17.754 68.242 19.254 66.551 0.87891 138.23-47.965 187.07l-30.609 30.609c-9.2812 9.2812-24.375 9.2812-33.656 0l-234.97-234.96c-9.2812-9.2812-9.2812-24.383 0-33.664l30.609-30.609c48.691-48.68 120.15-67.141 186.52-48.203 27.445 7.8242 56.684 0.44141 76.395-19.285l20.277-20.277 76.113 76.121zm123.93-84.348-56.391 56.395c-3.2227 3.2305-8.4375 3.2031-11.637 0l-106.97-106.98c-3.2109-3.2031-3.2109-8.4258 0-11.633l56.391-56.395c3.1289-3.1211 8.5078-3.1016 11.625 0l106.98 106.98c3.2109 3.207 3.2109 8.4297 0 11.633z"/>
</svg>
