<?xml version="1.0" encoding="UTF-8"?>
<svg width= "1200px" height= "1200px"  version="1.1" viewBox="0 0 1200 1200" xmlns="http://www.w3.org/2000/svg">
 <path stroke="black" stroke-width="20" d="m1154.4 451.2-338.4-208.8c-4.8008-3.6016-10.801-6-18-4.8008l-466.8 1.1992c-8.3984 0-16.801 3.6016-22.801 9.6016l-267.6 252c-9.6016 8.3984-13.199 21.602-9.6016 34.801l122.4 403.2c4.8008 14.398 18 24 32.398 24h762c13.199 0 26.398-8.3984 31.199-20.398l187.2-448.8c7.2031-15.598 1.2031-32.398-12-42zm-730.8 213.6 385.2-20.398 91.199 250.8h-646.8zm451.2-37.199 198-84-122.4 292.8zm188.4-152.4-226.8 96-394.8-265.2 346.8-1.1992zm-728.4-159.6 394.8 265.2-319.2 16.801-280.8-87.602zm-219.6 260.4 236.4 73.199-152.4 205.2z"/>
</svg>
