<?xml version="1.0" encoding="UTF-8"?>
<svg width="1050" height="100" version="1.1" viewBox="0 0 1050 1050" preserveAspectRatio='none'xmlns="http://www.w3.org/2000/svg">
 <path  stroke="black" stroke-width="0" d="m727.2 271.2c-187.2-67.199-393.6 31.199-460.8 218.4-27.602 78-27.602 163.2 0 241.2-103.2 144-129.6 238.8-81.602 286.8s159.6 1.1992 231.6-43.199l49.199-32.398c183.6 78 394.8-8.3984 471.6-190.8 38.398-90 38.398-190.8 0-280.8l32.398-49.199c44.398-72 99.602-175.2 43.199-231.6-56.398-57.602-141.6-22.801-285.6 81.598zm-307.2 152.4c103.2-102 270-102 373.2 0 12 12 22.801 24 31.199 38.398-52.801 68.398-110.4 133.2-172.8 194.4-61.199 61.199-126 118.8-194.4 172.8-14.398-9.6016-26.398-19.199-38.398-31.199-102-104.4-102-271.2 1.1992-374.4zm-162 520.8c4.8008-19.199 19.199-56.398 58.801-118.8 10.801 14.398 21.602 26.398 33.602 39.602 7.1992 7.1992 15.602 15.602 24 21.602-52.801 36-93.602 54-116.4 57.598zm535.2-147.6c-61.199 61.199-148.8 88.801-234 73.199 56.398-45.602 110.4-94.801 160.8-146.4 51.602-51.602 99.602-104.4 146.4-160.8 15.602 85.199-12 172.8-73.199 234zm90-417.6c-7.1992-8.3984-14.398-16.801-21.602-24-12-12-25.199-24-39.602-33.602 62.398-39.602 99.602-54 118.8-58.801-4.7969 22.805-21.598 62.402-57.598 116.4z"/>
</svg>
