<?xml version="1.0" encoding="UTF-8"?><svg id="svg-world" xmlns="http://www.w3.org/2000/svg" viewBox="0 0 51.9 51.9"><g id="svg-world-g"><g><path d="M25.95,51.9C11.64,51.9,0,40.26,0,25.95S11.64,0,25.95,0s25.95,11.64,25.95,25.95-11.64,25.95-25.95,25.95Zm0-47.32C14.17,4.58,4.58,14.17,4.58,25.95s9.59,21.37,21.37,21.37,21.37-9.59,21.37-21.37S37.74,4.58,25.95,4.58Z"/><path d="M39.67,25.95h-4.58c0-10.96-7.59-22-7.66-22.11l3.76-2.62c.35,.5,8.48,12.31,8.48,24.73Z"/><path d="M31.18,50.68l-3.76-2.62c.08-.11,7.66-11.15,7.66-22.11h4.58c0,12.42-8.14,24.23-8.48,24.73Z"/><path d="M25.79,20.35c-10.27,0-20.12-1.98-20.53-2.06l.91-4.49c.1,.02,9.83,1.97,19.62,1.97s19.52-1.95,19.62-1.97l.91,4.49c-.41,.08-10.26,2.06-20.53,2.06Z"/><path d="M45.41,38.1c-.1-.02-9.83-1.97-19.62-1.97s-19.52,1.95-19.62,1.97l-.91-4.49c.41-.08,10.26-2.06,20.53-2.06s20.12,1.98,20.53,2.06l-.91,4.49Z"/><path d="M16.81,25.95h-4.58C12.23,13.53,20.37,1.72,20.72,1.22l3.76,2.62c-.08,.11-7.66,11.15-7.66,22.11Z"/><path d="M20.72,50.68c-.35-.5-8.48-12.31-8.48-24.73h4.58c0,10.96,7.59,22,7.66,22.11l-3.76,2.62Z"/></g></g></svg>